#!OML:ASF G:\JayActor3\Patient Classification 1\Patient 1\Session 6\male.ASF
:FULLY-SPECIFIED
:DEGREES
770
root 8.04595 15.1974 -21.4857 193.149 -47.5313 -176.14
lowerback 32.3411 -1.14889 2.61872
upperback 8.47138 -1.98533 0.534727
thorax -8.05701 -1.52927 -0.0822268
lowerneck 5.34932 -0.168931 2.99213
upperneck -7.97287 0.0206908 0.59119
head -3.5233 -0.136213 -0.330276
rclavicle 5.56597e-014 5.56597e-014
rhumerus -29.7047 12.4632 -88.9436
rradius 50.9432
rwrist 2.63446
rhand -18.8871 -5.606
rfingers 7.12502
rthumb 7.41417 -35.4561
lclavicle 5.56597e-014 5.56597e-014
lhumerus -33.2253 -14.6948 86.8702
lradius 46.5174
lwrist 27.085
lhand -19.9472 7.2433
lfingers 7.12502
lthumb 6.39077 37.1269
rfemur -62.9118 8.45265 20.748
rtibia 48.5714
rfoot -1.73194 -10.5894
rtoes 9.66126
lfemur -59.9046 2.52974 -19.3806
ltibia 54.264
lfoot -15.7106 3.10482
ltoes -17.1587
771
root 7.95466 15.2309 -21.5437 193.363 -47.3782 -176.133
lowerback 32.6454 -1.29212 2.63191
upperback 7.86233 -2.1168 0.452983
thorax -8.13334 -1.58295 -0.0937292
lowerneck 4.21726 -0.0771205 2.96642
upperneck -6.69863 0.0905293 0.547975
head -2.86676 -0.0738546 -0.33926
rclavicle -5.00937e-014 1.98785e-015
rhumerus -29.378 12.7521 -89.0215
rradius 50.5553
rwrist 2.44342
rhand -18.4796 -5.62481
rfingers 7.12502
rthumb 7.80743 -35.4607
lclavicle -5.00937e-014 1.98785e-015
lhumerus -32.7291 -14.7466 87.3372
lradius 44.7431
lwrist 26.866
lhand -19.1932 7.23927
lfingers 7.12502
lthumb 7.11868 37.0996
rfemur -62.816 8.42581 20.8052
rtibia 48.7503
rfoot -2.03963 -10.3788
rtoes 9.53963
lfemur -59.247 2.44715 -19.3787
ltibia 52.7195
lfoot -14.7965 3.25546
ltoes -16.0127
772
root 7.86547 15.2644 -21.5978 193.564 -47.2161 -176.102
lowerback 32.5961 -1.44382 2.58762
upperback 7.6885 -2.2954 0.395398
thorax -8.31068 -1.65464 -0.0644228
lowerneck 3.12997 0.0489793 2.95189
upperneck -5.46607 0.209237 0.51376
head -2.25111 0.00969004 -0.346463
rclavicle -6.08281e-014 4.57205e-014
rhumerus -29.1201 13.1004 -89.0992
rradius 50.357
rwrist 2.22567
rhand -18.0727 -5.70035
rfingers 7.12502
rthumb 8.2002 -35.5212
lclavicle -6.08281e-014 4.57205e-014
lhumerus -32.4332 -14.472 87.6682
lradius 43.3803
lwrist 26.4402
lhand -18.3754 7.24803
lfingers 7.12502
lthumb 7.90805 37.0801
rfemur -62.7126 8.37355 20.8946
rtibia 48.8895
rfoot -2.33296 -10.121
rtoes 9.47721
lfemur -58.7187 2.48168 -19.4041
ltibia 51.843
lfoot -13.9895 3.0157
ltoes -14.3201
773
root 7.77834 15.2947 -21.6483 193.781 -47.0354 -176.064
lowerback 32.1884 -1.58902 2.48993
upperback 7.9653 -2.5016 0.353592
thorax -8.58692 -1.73568 -0.00850494
lowerneck 2.16314 0.194653 2.96622
upperneck -4.38713 0.359458 0.467334
head -1.72345 0.104573 -0.361005
rclavicle -2.5842e-014 5.1684e-015
rhumerus -28.9128 13.418 -89.1635
rradius 50.3419
rwrist 2.03781
rhand -17.6346 -5.77165
rfingers 7.12502
rthumb 8.62298 -35.5755
lclavicle -2.5842e-014 5.1684e-015
lhumerus -32.3192 -13.9596 87.8797
lradius 42.4569
lwrist 25.8879
lhand -17.6186 7.24777
lfingers 7.12502
lthumb 8.63841 37.051
rfemur -62.6442 8.32056 20.984
rtibia 49.0198
rfoot -2.62448 -9.83597
rtoes 9.48085
lfemur -58.3502 2.60759 -19.4515
ltibia 51.4695
lfoot -13.3346 2.55666
ltoes -12.181
774
root 7.69324 15.3215 -21.6954 194.022 -46.8407 -176.039
lowerback 32.0241 -1.74564 2.40074
upperback 7.82568 -2.70754 0.290789
thorax -8.67665 -1.81968 0.0481512
lowerneck 1.38393 0.342328 3.01282
upperneck -3.55156 0.520381 0.400658
head -1.31803 0.199567 -0.386217
rclavicle 5.1684e-014 -2.42517e-014
rhumerus -28.7595 13.6131 -89.2018
rradius 50.5129
rwrist 1.90516
rhand -17.1878 -5.79285
rfingers 7.12502
rthumb 9.05415 -35.5785
lclavicle 5.1684e-014 -2.42517e-014
lhumerus -32.3599 -13.3403 88.0041
lradius 41.9589
lwrist 25.3232
lhand -16.9797 7.21505
lfingers 7.12502
lthumb 9.25491 36.9919
rfemur -62.6151 8.28434 21.044
rtibia 49.1549
rfoot -2.91673 -9.54735
rtoes 9.48813
lfemur -58.1203 2.78444 -19.5193
ltibia 51.3755
lfoot -12.7869 2.06794
ltoes -9.70389
775
root 7.61052 15.3458 -21.7398 194.281 -46.6346 -176.042
lowerback 31.8267 -1.88121 2.31468
upperback 7.7171 -2.8927 0.220857
thorax -8.71446 -1.89558 0.0843685
lowerneck 0.806734 0.470386 3.08352
upperneck -2.99093 0.664126 0.326902
head -1.04063 0.280609 -0.417421
rclavicle -1.19271e-015 5.56597e-015
rhumerus -28.6623 13.6086 -89.2068
rradius 50.8644
rwrist 1.83622
rhand -16.7864 -5.75993
rfingers 7.12502
rthumb 9.44145 -35.5284
lclavicle -1.19271e-015 5.56597e-015
lhumerus -32.5091 -12.7551 88.0818
lradius 41.8434
lwrist 24.8829
lhand -16.531 7.14277
lfingers 7.12502
lthumb 9.68786 36.9
rfemur -62.5999 8.28083 21.0546
rtibia 49.2867
rfoot -3.20823 -9.28312
rtoes 9.47545
lfemur -57.985 2.98355 -19.6151
ltibia 51.3526
lfoot -12.2669 1.69031
ltoes -7.20947
776
root 7.53107 15.3706 -21.7823 194.528 -46.4258 -176.063
lowerback 31.6366 -1.98371 2.24811
upperback 7.64299 -3.03701 0.147142
thorax -8.71558 -1.95516 0.0883629
lowerneck 0.436351 0.564928 3.16096
upperneck -2.70063 0.772609 0.264599
head -0.885772 0.339124 -0.447122
rclavicle -7.15625e-015 -4.01545e-014
rhumerus -28.6378 13.3762 -89.1799
rradius 51.3844
rwrist 1.83036
rhand -16.5065 -5.66082
rfingers 7.12502
rthumb 9.71151 -35.4169
lclavicle -7.15625e-015 -4.01545e-014
lhumerus -32.7194 -12.3141 88.1529
lradius 42.0409
lwrist 24.6782
lhand -16.3819 7.11369
lfingers 7.12502
lthumb 9.83168 36.8642
rfemur -62.5527 8.32777 21.0164
rtibia 49.3886
rfoot -3.49603 -9.07769
rtoes 9.40842
lfemur -57.8687 3.19352 -19.7457
ltibia 51.2683
lfoot -11.5923 1.46509
ltoes -4.94001
777
root 7.45568 15.3995 -21.8239 194.751 -46.218 -176.118
lowerback 31.4871 -2.04306 2.18573
upperback 7.60301 -3.13217 0.0732053
thorax -8.6953 -1.99473 0.0715123
lowerneck 0.256298 0.621289 3.2238
upperneck -2.63637 0.839093 0.231178
head -0.834403 0.372727 -0.467001
rclavicle 5.32743e-014 -2.06736e-014
rhumerus -28.6998 12.9489 -89.1324
rradius 52.0495
rwrist 1.86328
rhand -16.4472 -5.52462
rfingers 7.12502
rthumb 9.76873 -35.278
lclavicle 5.32743e-014 -2.06736e-014
lhumerus -32.9497 -12.0372 88.2279
lradius 42.447
lwrist 24.5891
lhand -16.5091 7.12749
lfingers 7.12502
lthumb 9.70904 36.8837
rfemur -62.4275 8.43431 20.92
rtibia 49.4352
rfoot -3.78267 -8.95323
rtoes 9.31349
lfemur -57.6803 3.40223 -19.9184
ltibia 51.0759
lfoot -10.8592 1.35195
ltoes -2.84288
778
root 7.38449 15.4323 -21.8656 194.952 -46.0129 -176.209
lowerback 31.3909 -2.05941 2.10776
upperback 7.58944 -3.18262 0.00311207
thorax -8.66787 -2.01565 0.052564
lowerneck 0.228244 0.645963 3.26111
upperneck -2.72186 0.870736 0.237294
head -0.85563 0.38626 -0.471825
rclavicle 9.06458e-014 -2.90226e-014
rhumerus -28.8463 12.406 -89.0841
rradius 52.8139
rwrist 1.91297
rhand -16.6477 -5.37941
rfingers 7.12502
rthumb 9.5753 -35.1418
lclavicle 9.06458e-014 -2.90226e-014
lhumerus -33.1717 -11.8871 88.2995
lradius 42.9582
lwrist 24.4542
lhand -16.9272 7.18519
lfingers 7.12502
lthumb 9.30556 36.9598
rfemur -62.2232 8.60357 20.7661
rtibia 49.4183
rfoot -4.05974 -8.92034
rtoes 9.20484
lfemur -57.3827 3.62888 -20.1408
ltibia 50.7813
lfoot -10.2541 1.27306
ltoes -1.1387
779
root 7.31671 15.4676 -21.9081 195.148 -45.8161 -176.339
lowerback 31.3293 -2.04206 2.00563
upperback 7.59576 -3.20098 -0.0598481
thorax -8.63169 -2.02299 0.0444177
lowerneck 0.335466 0.650629 3.26261
upperneck -2.8996 0.882444 0.277476
head -0.928766 0.388298 -0.461381
rclavicle 5.725e-014 -1.66979e-014
rhumerus -29.0581 11.8299 -89.0461
rradius 53.6245
rwrist 1.97563
rhand -17.1037 -5.2593
rfingers 7.12502
rthumb 9.13527 -35.0414
lclavicle 5.725e-014 -1.66979e-014
lhumerus -33.3635 -11.7934 88.3461
lradius 43.4752
lwrist 24.0885
lhand -17.5665 7.25361
lfingers 7.12502
lthumb 8.68868 37.0548
rfemur -61.9617 8.81952 20.5589
rtibia 49.3476
rfoot -4.32283 -8.96709
rtoes 9.07389
lfemur -56.9799 3.8655 -20.4044
ltibia 50.4121
lfoot -9.86114 1.22675
ltoes -0.0548239
780
root 7.2515 15.5053 -21.9507 195.361 -45.6317 -176.514
lowerback 31.2912 -2.00367 1.87747
upperback 7.61025 -3.20156 -0.11646
thorax -8.5953 -2.02244 0.0525759
lowerneck 0.541739 0.643426 3.23622
upperneck -3.10086 0.883226 0.33264
head -1.02655 0.384678 -0.442333
rclavicle 6.52014e-014 1.19271e-014
rhumerus -29.3062 11.2904 -89.0242
rradius 54.4215
rwrist 2.05743
rhand -17.7466 -5.17241
rfingers 7.12502
rthumb 8.51489 -34.9807
lclavicle 6.52014e-014 1.19271e-014
lhumerus -33.5112 -11.7051 88.3445
lradius 43.907
lwrist 23.3998
lhand -18.2129 7.28587
lfingers 7.12502
lthumb 8.06485 37.112
rfemur -61.6721 9.0543 20.3017
rtibia 49.2393
rfoot -4.56776 -9.06436
rtoes 8.92521
lfemur -56.5026 4.08534 -20.6929
ltibia 49.9913
lfoot -9.68428 1.19127
ltoes 0.435386
781
root 7.18777 15.5438 -21.9927 195.608 -45.4558 -176.724
lowerback 31.2521 -1.95434 1.73275
upperback 7.62472 -3.19242 -0.16609
thorax -8.5572 -2.0171 0.0744876
lowerneck 0.802509 0.62905 3.19871
upperneck -3.25841 0.87673 0.372079
head -1.12051 0.37874 -0.426294
rclavicle 1.1609e-013 5.48646e-014
rhumerus -29.5525 10.8393 -89.0127
rradius 55.1457
rwrist 2.15527
rhand -18.4531 -5.13235
rfingers 7.12502
rthumb 7.83299 -34.9672
lclavicle 1.1609e-013 5.48646e-014
lhumerus -33.6097 -11.5847 88.2881
lradius 44.2069
lwrist 22.5054
lhand -18.8217 7.26419
lfingers 7.12502
lthumb 7.47729 37.112
rfemur -61.3906 9.28757 20.0068
rtibia 49.1088
rfoot -4.78743 -9.18268
rtoes 8.77767
lfemur -56.003 4.27795 -20.9898
ltibia 49.5396
lfoot -9.63787 1.15012
ltoes 0.568237
782
root 7.12445 15.5827 -22.033 195.871 -45.3004 -176.947
lowerback 31.2138 -1.90909 1.60828
upperback 7.63775 -3.18087 -0.208822
thorax -8.52147 -2.01078 0.0917101
lowerneck 1.09495 0.609122 3.16326
upperneck -3.34354 0.863589 0.379477
head -1.19761 0.371498 -0.420203
rclavicle -8.34896e-014 6.24184e-014
rhumerus -29.7645 10.4913 -89.0026
rradius 55.753
rwrist 2.26873
rhand -19.1037 -5.07222
rfingers 7.12502
rthumb 7.20509 -34.9296
lclavicle -8.34896e-014 6.24184e-014
lhumerus -33.6623 -11.459 88.1858
lradius 44.3711
lwrist 21.6521
lhand -19.3605 7.23779
lfingers 7.12502
lthumb 6.95718 37.1035
rfemur -61.1173 9.49857 19.698
rtibia 48.9605
rfoot -4.98113 -9.30269
rtoes 8.63354
lfemur -55.5095 4.4355 -21.2766
ltibia 49.077
lfoot -9.6403 1.09421
ltoes 0.521279
783
root 7.06114 15.6213 -22.0713 196.131 -45.163 -177.157
lowerback 31.1709 -1.87178 1.52458
upperback 7.65584 -3.16672 -0.245709
thorax -8.47909 -2.00408 0.0907379
lowerneck 1.388 0.58444 3.14825
upperneck -3.35174 0.843284 0.346121
head -1.25088 0.362637 -0.429622
rclavicle -5.08889e-014 8.50798e-014
rhumerus -29.911 10.255 -88.9905
rradius 56.2262
rwrist 2.38231
rhand -19.5936 -5.0063
rfingers 7.12502
rthumb 6.73214 -34.8793
lclavicle -5.08889e-014 8.50798e-014
lhumerus -33.6657 -11.344 88.0388
lradius 44.4155
lwrist 21.0515
lhand -19.7576 7.20533
lfingers 7.12502
lthumb 6.57385 37.0833
rfemur -60.8497 9.68588 19.3976
rtibia 48.7942
rfoot -5.15596 -9.41678
rtoes 8.51708
lfemur -55.0472 4.56987 -21.5448
ltibia 48.625
lfoot -9.62632 1.04945
ltoes 0.49664
